<svg width="1440" height="1595" viewBox="0 0 1440 1595" fill="none" xmlns="http://www.w3.org/2000/svg">
<g filter="url(#filter0_f_50_70)">
<path d="M180.055 579.139C154.535 553.344 111.35 550.053 92.9477 551.632L92.3963 556.521L45.5786 850.437C49.5654 855.484 72.964 872.623 134.664 900.801C211.789 936.024 246.879 863.238 279.578 900.524C312.277 937.809 440.313 957.908 464.709 955.709C489.104 953.509 611.94 942.961 663.617 1001.84C715.294 1060.72 721.399 1006.59 825.695 990.764C929.991 974.942 935.906 991.17 957.061 1005.58C978.216 1019.99 1080.52 969.285 1115.6 961.218C1150.68 953.15 1178.95 948.911 1230.83 997.909C1272.34 1037.11 1361.93 1044.76 1401.54 1043.69L1398.51 698.88L1359.82 694.517C1241.89 687.111 1005.19 675.81 1001.78 689.855C997.524 707.411 697.204 691.93 650.186 680.615C603.168 669.299 563.504 685.692 502.166 700.347C453.096 712.071 334.742 659.183 281.698 631.274C258.451 624.644 205.576 604.935 180.055 579.139Z" fill="#684A97"/>
<path d="M180.055 579.139C154.535 553.344 111.35 550.053 92.9477 551.632L92.3963 556.521L45.5786 850.437C49.5654 855.484 72.964 872.623 134.664 900.801C211.789 936.024 246.879 863.238 279.578 900.524C312.277 937.809 440.313 957.908 464.709 955.709C489.104 953.509 611.94 942.961 663.617 1001.84C715.294 1060.72 721.399 1006.59 825.695 990.764C929.991 974.942 935.906 991.17 957.061 1005.58C978.216 1019.99 1080.52 969.285 1115.6 961.218C1150.68 953.15 1178.95 948.911 1230.83 997.909C1272.34 1037.11 1361.93 1044.76 1401.54 1043.69L1398.51 698.88L1359.82 694.517C1241.89 687.111 1005.19 675.81 1001.78 689.855C997.524 707.411 697.204 691.93 650.186 680.615C603.168 669.299 563.504 685.692 502.166 700.347C453.096 712.071 334.742 659.183 281.698 631.274C258.451 624.644 205.576 604.935 180.055 579.139Z" stroke="black"/>
</g>
<defs>
<filter id="filter0_f_50_70" x="-504.95" y="0.801514" width="2456.99" height="1593.48" filterUnits="userSpaceOnUse" color-interpolation-filters="sRGB">
<feFlood flood-opacity="0" result="BackgroundImageFix"/>
<feBlend mode="normal" in="SourceGraphic" in2="BackgroundImageFix" result="shape"/>
<feGaussianBlur stdDeviation="275" result="effect1_foregroundBlur_50_70"/>
</filter>
</defs>
</svg>
