<svg xmlns="http://www.w3.org/2000/svg" viewBox="0 0 350.72 342.97"><defs><style>.cls-1{fill:#e8473a;}.cls-2{fill:#684a97;}.cls-3{fill:#ffd300;}.cls-4{fill:#fdcf60;}</style></defs><title>Colorida-1</title><g id="Camada_2" data-name="Camada 2"><g id="Vetores"><g id="Colorida-1"><path class="cls-1" d="M331.44,209.61a12.84,12.84,0,1,0,12.84,12.84A12.84,12.84,0,0,0,331.44,209.61Z"/><path class="cls-1" d="M53.12,60.82A12.84,12.84,0,1,0,40.28,48,12.84,12.84,0,0,0,53.12,60.82Z"/><path class="cls-1" d="M32.7,259.19A12.84,12.84,0,1,0,45.52,272,12.84,12.84,0,0,0,32.7,259.19Z"/><path class="cls-2" d="M312.15,222.45a19.31,19.31,0,0,1,19.29-19.28c.64,0,1.28,0,1.91.09.13-.67.29-1.32.41-2s.27-1.56.4-2.34c.36-2.11.68-4.25.95-6.39.13-1,.26-1.94.37-2.91.23-2.1.41-4.21.56-6.33.07-.92.16-1.83.21-2.75.16-3,.27-6,.27-9.07,0-91-74-165-165-165q-3.64,0-7.28.16c-.83,0-1.65.11-2.47.16-1.59.09-3.16.18-4.74.32-1,.08-2,.21-3,.31-1.38.15-2.77.29-4.14.47-1.07.14-2.13.31-3.19.47-1.28.2-2.55.39-3.81.61s-2.22.42-3.32.64-2.39.47-3.58.73-2.27.52-3.41.8-2.24.55-3.36.85-2.32.64-3.48,1-2.12.62-3.17,1-2.36.75-3.54,1.14l-3,1c-1.21.43-2.4.87-3.59,1.33-.94.36-1.86.73-2.79,1.1-1.22.5-2.43,1-3.64,1.53-.86.37-1.72.76-2.57,1.15-1.25.56-2.49,1.14-3.71,1.73-.79.38-1.56.78-2.34,1.17-1.27.65-2.53,1.29-3.78,2-.7.37-1.38.76-2.08,1.15-1.3.73-2.61,1.46-3.89,2.22-.57.33-1.13.69-1.7,1-1.38.84-2.75,1.68-4.1,2.55l-1.11.75c-3.35,2.21-6.62,4.52-9.79,7A19.06,19.06,0,0,1,72.4,48,19.25,19.25,0,0,1,45.11,65.5q-2.23,2.66-4.35,5.41a.27.27,0,0,0-.07.08c-1.21,1.57-2.38,3.18-3.54,4.8-.24.34-.5.68-.74,1-1,1.48-2,3-3,4.49-.34.51-.68,1-1,1.54Q31,85,29.72,87.16c-.38.64-.77,1.27-1.14,1.91-.8,1.38-1.57,2.79-2.33,4.19-.4.74-.8,1.48-1.19,2.22-.71,1.35-1.39,2.72-2.06,4.11-.4.82-.8,1.64-1.19,2.48-.62,1.33-1.22,2.68-1.81,4-.39.91-.78,1.81-1.15,2.73-.54,1.31-1.07,2.63-1.58,4-.37,1-.74,2-1.09,3-.47,1.3-.92,2.59-1.36,3.9-.35,1.06-.68,2.13-1,3.19-.4,1.27-.78,2.54-1.14,3.82s-.62,2.28-.92,3.43-.65,2.48-.94,3.73-.54,2.45-.8,3.68-.51,2.4-.74,3.61-.45,2.64-.66,4c-.19,1.15-.39,2.31-.55,3.47-.21,1.43-.36,2.88-.52,4.32-.12,1.07-.26,2.14-.37,3.22-.15,1.66-.25,3.33-.36,5,0,.88-.13,1.76-.18,2.65-.11,2.57-.18,5.15-.18,7.75,0,1.94,0,3.88.1,5.8,0,.66.07,1.31.11,2,0,1.26.11,2.52.19,3.77l.21,2.38c.09,1.1.18,2.2.29,3.3.1.85.21,1.7.31,2.54.12,1,.24,2,.38,3.07s.26,1.77.4,2.65.31,1.94.48,2.9.33,1.82.5,2.73.36,1.82.55,2.73.4,1.88.61,2.8.4,1.73.62,2.59.47,1.91.73,2.86.44,1.63.67,2.45.55,1.95.84,2.92c.23.76.47,1.51.71,2.27.32,1,.64,2,1,3,.23.68.48,1.36.72,2,.37,1.05.74,2.11,1.13,3.15.21.56.44,1.1.65,1.65q2.48,6.34,5.44,12.44l.27.59c.52,1,1.06,2.07,1.59,3.1.31.59.6,1.18.92,1.77.49.91,1,1.81,1.51,2.72.29.54.59,1.07.89,1.6a19.24,19.24,0,0,1,20.88,28.77c.26.27.49.56.75.84.77.85,1.58,1.67,2.37,2.5,1.21,1.26,2.41,2.52,3.65,3.73.85.84,1.73,1.65,2.6,2.46,1.23,1.17,2.47,2.33,3.75,3.46.91.8,1.84,1.59,2.78,2.38,1.27,1.08,2.55,2.15,3.86,3.19,1,.78,2,1.53,3,2.29q2,1.5,4,2.94c1,.73,2.08,1.46,3.13,2.17q2,1.37,4.09,2.7c1.08.69,2.16,1.36,3.26,2,1.39.84,2.79,1.67,4.22,2.47,1.12.63,2.25,1.26,3.39,1.87,1.43.77,2.88,1.51,4.33,2.23,1.16.58,2.33,1.15,3.51,1.7,1.47.7,3,1.35,4.46,2,1.2.52,2.39,1,3.61,1.53,1.51.61,3.05,1.19,4.59,1.76,1.23.45,2.45.91,3.69,1.34,1.56.53,3.15,1,4.74,1.51,1.24.39,2.48.79,3.74,1.14,1.62.46,3.26.87,4.9,1.28,1.25.31,2.5.64,3.77.93,1.68.38,3.39.69,5.09,1,1.25.24,2.49.5,3.74.72,1.8.3,3.62.53,5.43.77,1.19.16,2.37.36,3.56.48,2,.23,4.07.38,6.12.53,1,.08,2,.19,3,.25q4.6.25,9.27.26,3.2,0,6.35-.13c.71,0,1.41-.08,2.11-.11,1.4-.08,2.8-.14,4.18-.24.85-.06,1.68-.16,2.52-.24,1.24-.11,2.48-.22,3.71-.36.89-.1,1.78-.23,2.68-.35,1.16-.15,2.32-.29,3.47-.47.93-.14,1.84-.31,2.76-.47,1.11-.19,2.22-.37,3.32-.58.94-.18,1.87-.39,2.8-.58s2.14-.45,3.2-.69,1.89-.46,2.84-.69l3.07-.79c1-.26,1.9-.54,2.85-.81s2-.58,3-.89,1.89-.61,2.83-.92,1.94-.64,2.9-1,1.89-.68,2.83-1l2.81-1.06,2.82-1.16c.91-.38,1.82-.75,2.72-1.15s1.87-.83,2.81-1.26,1.75-.81,2.62-1.23,1.86-.91,2.79-1.38,1.69-.85,2.53-1.3,1.85-1,2.77-1.49,1.63-.9,2.44-1.37,1.83-1.06,2.74-1.61,1.57-.94,2.35-1.43,1.82-1.14,2.72-1.72l2.24-1.49c.91-.6,1.8-1.22,2.69-1.84.73-.51,1.44-1,2.15-1.54.89-.64,1.78-1.3,2.66-2,.69-.51,1.36-1,2.05-1.57.88-.69,1.76-1.38,2.63-2.09.65-.53,1.29-1.07,1.93-1.61.88-.73,1.74-1.47,2.6-2.22.62-.53,1.22-1.08,1.82-1.62.87-.78,1.73-1.56,2.57-2.36.58-.54,1.15-1.09,1.71-1.64.86-.82,1.71-1.65,2.54-2.49q.81-.82,1.59-1.65c.85-.87,1.69-1.75,2.51-2.63l1.46-1.63c.83-.93,1.66-1.85,2.48-2.8.44-.51.87-1.05,1.31-1.57.83-1,1.66-2,2.47-3,.39-.48.76-1,1.14-1.46.83-1.07,1.67-2.14,2.48-3.23.32-.43.62-.87.94-1.3.84-1.17,1.69-2.34,2.51-3.52.21-.32.41-.64.62-.95.9-1.33,1.8-2.66,2.66-4h0a166.36,166.36,0,0,0,11-20.36l.13-.27A19.28,19.28,0,0,1,312.15,222.45Z"/><path class="cls-3" d="M237.81,273.66A12.57,12.57,0,0,1,220.12,271a64.44,64.44,0,0,1-12.31-37.77V154.3h-.06c-.05-10.56,0-18.18,0-18.18l0-2V110.25l-16.43,16.47c-3.29,3.29-13.85,14.17-24.88,14.17s-20.84-10.88-24-14.17l-16.64-16.67V224.34A12.28,12.28,0,0,1,122,233.4a13.1,13.1,0,0,1-18.27,0,12.24,12.24,0,0,1-3.73-9.06V79.58a12.67,12.67,0,0,1,12.76-12.77A12.47,12.47,0,0,1,120,69.08v-.21l1.64,1.44,36.65,36.86a12.35,12.35,0,0,0,8.44,3.29,12.11,12.11,0,0,0,8.23-3.29l37.88-38.09H213a12.44,12.44,0,0,1,7.2-2.27A12.68,12.68,0,0,1,233,79.58v54.59l0,4.49h0l.1,30.22v64.34a38.57,38.57,0,0,0,7.36,22.58,12.86,12.86,0,0,1-2.66,17.87"/><path class="cls-4" d="M339.66,205A171.46,171.46,0,0,0,67.49,35.16a19.26,19.26,0,1,0-27.8,26.63A171.38,171.38,0,0,0,22.22,255.86,19.27,19.27,0,1,0,44.78,287a171.48,171.48,0,0,0,283.28-45.61,19.67,19.67,0,0,0,3.38.31,19.27,19.27,0,0,0,8.22-36.7ZM53.12,35.15a12.71,12.71,0,0,1,2.64.28c.13,0,.25.08.37.11a12.4,12.4,0,0,1,2.11.69s.08.05.13.06A12.84,12.84,0,0,1,65.58,45h0c.07.29.12.58.17.88a12.65,12.65,0,0,1-12.63,14.9,10.12,10.12,0,0,1-2-.21,11.7,11.7,0,0,1-1.45-.32h0a12.71,12.71,0,0,1-5.73-3.37h0l0,0a12.94,12.94,0,0,1-2.63-4c-.07-.16-.1-.35-.16-.52a12.89,12.89,0,0,1-.56-1.83A12.82,12.82,0,0,1,53.12,35.15Zm-12.6,247h0a12.55,12.55,0,0,1-1.57,1l-.35.19a13.14,13.14,0,0,1-1.48.67c-.3.11-.61.2-.92.29a11.8,11.8,0,0,1-1.17.3,12,12,0,0,1-2.33.24A12.84,12.84,0,0,1,19.85,272a12.57,12.57,0,0,1,.24-2.31c0-.16.05-.32.09-.49a13.08,13.08,0,0,1,.64-2.07l.18-.38a13.63,13.63,0,0,1,.91-1.68l.22-.35a13.44,13.44,0,0,1,1.32-1.61l.4-.39a13.2,13.2,0,0,1,1.63-1.34h0a12.83,12.83,0,0,1,6.36-2.13h0c.29,0,.56-.09.86-.09A12.83,12.83,0,0,1,45.52,272a12.12,12.12,0,0,1-.25,2.5A12.75,12.75,0,0,1,40.52,282.13Zm131,54.39A164.65,164.65,0,0,1,49.11,282.09,19.1,19.1,0,0,0,52,272,19.3,19.3,0,0,0,32.7,252.75a18.78,18.78,0,0,0-4.46.54A164.54,164.54,0,0,1,45.11,65.5,19.25,19.25,0,0,0,71,40.72,164.18,164.18,0,0,1,171.48,6.45c91,0,165,74,165,165a164.84,164.84,0,0,1-3.1,31.79,18.49,18.49,0,0,0-2-.1,19.26,19.26,0,0,0-9.51,36C296,296.51,238.36,336.52,171.48,336.52Zm160-101.24a12.74,12.74,0,0,1-7.68-2.6c-.33-.25-.64-.51-.95-.78s-.44-.39-.64-.61a12.72,12.72,0,0,1-1.2-1.44l-.39-.61a14.82,14.82,0,0,1-.8-1.47c-.06-.15-.14-.29-.2-.44a12.73,12.73,0,0,1-.64-2c0-.19-.07-.36-.11-.54a13.38,13.38,0,0,1-.23-2.3,12.84,12.84,0,0,1,12.84-12.84c.19,0,.38,0,.57.06h0a12.7,12.7,0,0,1,7.23,2.65c.21.16.4.33.6.5a13,13,0,0,1,1.13,1.1c.29.33.58.67.85,1s.35.51.52.78.49.86.71,1.31c.08.18.18.34.25.52a12.17,12.17,0,0,1,.63,2l.12.58a13.15,13.15,0,0,1,.23,2.28A12.83,12.83,0,0,1,331.44,235.28Z"/></g></g></g></svg>