<svg width="374" height="162" viewBox="0 0 374 162" fill="none" xmlns="http://www.w3.org/2000/svg">
<g clip-path="url(#clip0_7_3)">
<path d="M72.2977 10.7171C71.594 10.7308 70.8951 10.5978 70.2456 10.3266C69.5961 10.0553 69.0102 9.65182 68.5253 9.14172C68.0253 8.64845 67.6307 8.0588 67.3654 7.4085C67.1002 6.75819 66.9697 6.06079 66.982 5.35857C66.9716 4.65661 67.1029 3.95975 67.368 3.30971C67.6332 2.65967 68.0268 2.06981 68.5253 1.57543C69.0102 1.06532 69.5961 0.661803 70.2456 0.390567C70.8951 0.11933 71.594 -0.0136781 72.2977 1.3156e-05C73.0037 -0.00767763 73.704 0.127978 74.3561 0.39877C75.0082 0.669561 75.5986 1.06986 76.0915 1.57543C76.6057 2.06124 77.0139 2.64806 77.2905 3.29908C77.5672 3.95009 77.7063 4.65126 77.6991 5.35857C77.7082 6.06617 77.57 6.76793 77.2932 7.41923C77.0165 8.07052 76.6072 8.65712 76.0915 9.14172C75.5986 9.64729 75.0082 10.0476 74.3561 10.3184C73.704 10.5892 73.0037 10.7248 72.2977 10.7171Z" fill="#E8473A"/>
<path d="M293.274 79.1781C293.073 78.9782 292.833 78.8202 292.57 78.7135C292.307 78.6068 292.025 78.5535 291.742 78.5565H291.506C290.593 78.5612 289.688 78.3789 288.848 78.0207C288.048 77.6739 287.321 77.1794 286.704 76.5631C286.085 75.9493 285.59 75.2215 285.247 74.4197C284.884 73.5774 284.701 72.6683 284.711 71.7511L284.647 65.9853H290.005C290.441 65.8484 290.821 65.576 291.091 65.2078C291.361 64.8396 291.506 64.3949 291.506 63.9384C291.509 63.6519 291.454 63.3678 291.346 63.1027C291.237 62.8376 291.077 62.597 290.873 62.3951C290.672 62.19 290.432 62.0274 290.167 61.9169C289.902 61.8064 289.617 61.7504 289.33 61.7521H284.69V57.0472C284.685 56.4887 284.461 55.9542 284.068 55.5576C283.873 55.35 283.637 55.1855 283.375 55.0748C283.113 54.964 282.831 54.9094 282.546 54.9145C281.982 54.9281 281.445 55.1583 281.046 55.5574C280.647 55.9565 280.416 56.4938 280.403 57.058V65.4495V65.9746V71.7404C280.4 73.2144 280.699 74.6734 281.282 76.0273C281.852 77.3507 282.662 78.557 283.672 79.5854C284.69 80.5947 285.89 81.402 287.208 81.9646C288.561 82.5529 290.02 82.8557 291.495 82.8541H291.709C292.272 82.8354 292.806 82.6035 293.204 82.2055C293.602 81.8076 293.834 81.2732 293.853 80.7106C293.871 80.4287 293.829 80.1461 293.729 79.8818C293.629 79.6175 293.474 79.3776 293.274 79.1781Z" fill="#E8473A"/>
<path d="M340.965 72.019C340.95 72.564 340.718 73.0805 340.322 73.4551C339.936 73.8384 339.419 74.0606 338.875 74.0767H324.332C324.425 74.3585 324.543 74.6312 324.686 74.8912L325.018 75.5128L325.34 76.1023C325.233 75.9308 325.136 75.7593 325.05 75.5986L324.782 75.0949C325.163 75.7933 325.643 76.4323 326.208 76.9918C326.902 77.5942 327.712 78.0499 328.587 78.3314C332.552 79.2209 336.185 77.8384 337.064 77.8813H337.193C337.455 77.8723 337.717 77.9182 337.96 78.016C338.204 78.1138 338.424 78.2614 338.608 78.4493C338.797 78.6345 338.946 78.8566 339.045 79.1018C339.145 79.347 339.193 79.6101 339.186 79.8747C339.209 80.1427 339.169 80.4123 339.068 80.6618C338.968 80.9112 338.81 81.1336 338.608 81.3108C338.193 81.6223 337.706 81.8249 337.193 81.9002C335.114 82.3356 332.993 82.5334 330.87 82.4897C330.752 82.4897 329.862 82.4897 329.798 82.4897C328.884 82.423 327.983 82.2356 327.119 81.9324C326.264 81.6318 325.448 81.2325 324.686 80.7428C323.91 80.2532 323.204 79.6621 322.585 78.9852C320.771 76.9447 319.829 74.2747 319.96 71.5475C320.028 69.758 320.563 68.0176 321.514 66.4997C321.61 66.3711 321.696 66.2318 321.792 66.0925C321.889 65.9531 321.996 65.8138 322.103 65.6852C322.897 64.6074 323.899 63.6999 325.05 63.0167C326.185 62.3358 327.434 61.8674 328.737 61.6341C330.402 61.3649 332.107 61.4972 333.71 62.02C335.31 62.5255 336.759 63.4246 337.922 64.6349C338.868 65.5979 339.627 66.7281 340.161 67.968C340.696 69.2063 340.97 70.5416 340.965 71.8904V72.019ZM327.033 66.5319C326.405 66.944 325.851 67.4584 325.393 68.0537C324.934 68.6387 324.573 69.2936 324.322 69.9935H336.603C336.487 69.6215 336.332 69.2624 336.143 68.9218C335.735 68.136 335.16 67.4485 334.46 66.907C333.761 66.3518 332.954 65.9469 332.091 65.7174C331.242 65.474 330.349 65.4228 329.477 65.5673C328.596 65.7032 327.753 66.0207 327.001 66.4997" fill="#E8473A"/>
<path d="M318.459 72.6192V81.2894C318.459 81.8578 318.233 82.403 317.831 82.805C317.43 83.207 316.884 83.4328 316.316 83.4328C316.03 83.4387 315.745 83.3846 315.481 83.2738C315.217 83.163 314.98 82.9981 314.783 82.7898C314.582 82.5869 314.423 82.3459 314.317 82.0809C314.21 81.8159 314.157 81.5322 314.162 81.2465V72.6192C314.17 71.7021 313.988 70.7933 313.626 69.9506C313.284 69.1508 312.793 68.4233 312.179 67.8072C311.563 67.191 310.835 66.6965 310.036 66.3497C309.196 65.9915 308.291 65.8091 307.378 65.8138C306.471 65.8081 305.574 65.9905 304.741 66.3497C303.945 66.7017 303.218 67.1956 302.598 67.8072C301.959 68.439 301.453 69.1919 301.109 70.0219C300.765 70.8519 300.59 71.7422 300.594 72.6406V81.3001C300.594 81.8686 300.368 82.4137 299.966 82.8157C299.564 83.2177 299.019 83.4435 298.45 83.4435C298.166 83.4486 297.883 83.394 297.621 83.2833C297.359 83.1725 297.123 83.008 296.929 82.8005C296.548 82.4172 296.326 81.9043 296.307 81.3644V56.0934C296.304 55.8095 296.357 55.5279 296.464 55.2648C296.571 55.0017 296.729 54.7624 296.929 54.5609C297.123 54.3533 297.359 54.1888 297.621 54.0781C297.883 53.9673 298.166 53.9127 298.45 53.9178C298.738 53.9162 299.022 53.9722 299.287 54.0827C299.552 54.1931 299.793 54.3558 299.994 54.5609C300.201 54.758 300.365 54.9959 300.476 55.2597C300.587 55.5235 300.641 55.8074 300.637 56.0934V60.6696V63.8097C301.601 63.0842 302.666 62.5029 303.798 62.0843C306.407 61.1712 309.262 61.2668 311.804 62.3522C312.767 62.7663 313.669 63.3108 314.483 63.9705C314.783 64.2077 315.066 64.4655 315.33 64.7421C316.351 65.7483 317.164 66.9466 317.72 68.2681C318.321 69.6391 318.624 71.1222 318.609 72.6192" fill="#E8473A"/>
<path d="M287.648 65.9639H283.414L287.648 65.5245V65.9639Z" fill="#E8473A"/>
<path d="M266.417 25.5389C268.78 25.1493 271.206 25.5733 273.296 26.7414C275.387 27.9095 277.02 29.7526 277.927 31.9692C278.46 33.252 278.723 34.6312 278.699 36.0202C278.692 37.1136 278.511 38.1989 278.163 39.2354C277.802 40.2853 277.285 41.2751 276.63 42.1719C275.575 43.6003 274.174 44.7364 272.558 45.4727C270.957 46.2161 269.196 46.5477 267.435 46.4373C266.517 46.3738 265.612 46.1863 264.745 45.88C263.883 45.5809 263.062 45.174 262.302 44.669C261.551 44.1557 260.86 43.5589 260.244 42.8899C259.638 42.2404 259.123 41.5122 258.711 40.7251C258.319 39.92 258.024 39.0709 257.833 38.1958C257.65 37.3297 257.578 36.4437 257.618 35.5594C257.661 34.6691 257.812 33.7874 258.068 32.9337C258.312 32.0707 258.673 31.2451 259.14 30.4795C259.307 30.1853 259.493 29.9024 259.697 29.6328C260.492 28.5519 261.498 27.644 262.655 26.9643C263.801 26.293 265.056 25.8286 266.363 25.5925M273.512 39.6533C274.422 38.3045 274.803 36.6679 274.583 35.0557C274.472 34.3044 274.229 33.5787 273.865 32.9123C273.43 32.1295 272.848 31.438 272.151 30.876C271.462 30.3123 270.657 29.9095 269.793 29.6971C268.94 29.4529 268.045 29.3945 267.167 29.5257C266.28 29.6578 265.43 29.9716 264.67 30.4473C263.694 31.0744 262.9 31.9465 262.366 32.9766C261.827 34.0091 261.579 35.1685 261.648 36.331C261.686 37.2227 261.924 38.0944 262.344 38.8817L262.655 39.4926C262.757 39.7029 262.872 39.9069 262.998 40.1035C262.795 39.7712 262.612 39.4283 262.441 39.0853C262.796 39.7038 263.252 40.2581 263.791 40.7251C264.342 41.2129 264.963 41.614 265.635 41.9147C266.311 42.2172 267.038 42.3917 267.778 42.4291C268.534 42.4615 269.289 42.3562 270.007 42.1183C270.705 41.9009 271.36 41.5675 271.947 41.1323C272.543 40.7245 273.071 40.2254 273.512 39.6533Z" fill="#E8473A"/>
<path d="M293.446 19.1301C293.654 19.3315 293.819 19.573 293.932 19.8401C294.044 20.1072 294.101 20.3943 294.099 20.6841C294.106 20.973 294.051 21.26 293.939 21.5261C293.826 21.7922 293.658 22.0312 293.446 22.2273C293.242 22.4318 293 22.5932 292.733 22.7018C292.466 22.8105 292.18 22.8642 291.892 22.8596H291.677C290.749 22.8533 289.829 23.0394 288.977 23.4062C287.323 24.1025 286.008 25.418 285.311 27.0715C284.944 27.9243 284.758 28.8439 284.765 29.7722V32.1514H289.469C289.758 32.1483 290.045 32.2036 290.312 32.3141C290.579 32.4246 290.821 32.588 291.023 32.7944C291.234 32.9893 291.402 33.2266 291.514 33.4908C291.627 33.7549 291.682 34.0399 291.677 34.327C291.674 34.9126 291.441 35.4736 291.028 35.8888C290.615 36.3039 290.055 36.5398 289.469 36.5454H284.765V44.3689C284.771 44.6589 284.718 44.9471 284.609 45.2161C284.5 45.4851 284.338 45.7291 284.132 45.9336C283.934 46.1423 283.694 46.3073 283.429 46.418C283.163 46.5287 282.877 46.5827 282.589 46.5766C282.297 46.5855 282.006 46.5345 281.734 46.4267C281.462 46.3189 281.215 46.1566 281.008 45.9498C280.801 45.743 280.639 45.4961 280.531 45.2242C280.423 44.9523 280.372 44.6612 280.381 44.3689V29.7722C280.376 28.2657 280.679 26.7741 281.271 25.3889C281.843 24.0458 282.665 22.8238 283.693 21.7879C284.725 20.7648 285.939 19.9433 287.272 19.3659C288.664 18.7705 290.164 18.4677 291.677 18.4763H291.892C292.182 18.4708 292.47 18.526 292.738 18.6386C293.005 18.7512 293.247 18.9186 293.446 19.1301Z" fill="#E8473A"/>
<path d="M63.767 104.267C63.0672 104.275 62.3732 104.139 61.728 103.868C61.0828 103.597 60.5001 103.197 60.016 102.691C59.0147 101.687 58.4524 100.327 58.4524 98.9083C58.4524 97.4901 59.0147 96.1296 60.016 95.1252C60.5025 94.6172 61.0887 94.215 61.7378 93.944C62.387 93.6729 63.085 93.5387 63.7884 93.5498C64.4997 93.539 65.2057 93.6731 65.8635 93.9439C66.5212 94.2147 67.117 94.6167 67.6144 95.1252C68.6157 96.1296 69.178 97.4901 69.178 98.9083C69.178 100.327 68.6157 101.687 67.6144 102.691C67.117 103.2 66.5212 103.602 65.8635 103.873C65.2057 104.144 64.4997 104.278 63.7884 104.267" fill="#E8473A"/>
<path d="M188.514 83.5936C187.81 83.6079 187.111 83.4752 186.462 83.2039C185.812 82.9326 185.226 82.5288 184.742 82.0181C183.753 81.0051 183.199 79.6455 183.199 78.2296C183.199 76.8138 183.753 75.4541 184.742 74.4411C185.229 73.9345 185.815 73.5341 186.465 73.2648C187.114 72.9955 187.812 72.8633 188.514 72.8764C189.223 72.8695 189.927 73.0055 190.582 73.2761C191.238 73.5468 191.832 73.9467 192.33 74.4519C193.334 75.4567 193.898 76.8195 193.898 78.2404C193.898 79.6613 193.334 81.024 192.33 82.0289C191.832 82.5341 191.238 82.9333 190.582 83.2022C189.926 83.4712 189.223 83.6043 188.514 83.5936Z" fill="#E8473A"/>
<path d="M76.0916 70.015C76.5992 69.5236 77.0008 68.9335 77.2717 68.281C77.5427 67.6285 77.6772 66.9275 77.667 66.2211V25.8175C77.667 24.3964 77.1024 23.0334 76.0975 22.0285C75.0926 21.0235 73.7296 20.459 72.3084 20.459C71.6149 20.4474 70.9264 20.5795 70.2864 20.8469C69.6464 21.1143 69.0687 21.5114 68.5896 22.013C68.091 22.5117 67.6975 23.1054 67.4324 23.7589C67.1674 24.4124 67.0361 25.1124 67.0463 25.8175V66.2211C67.0351 66.9248 67.1659 67.6235 67.4311 68.2754C67.6963 68.9273 68.0903 69.5189 68.5896 70.015C69.0683 70.528 69.6498 70.9344 70.2961 71.2077C70.9424 71.481 71.639 71.6151 72.3406 71.6011C73.0406 71.6041 73.7339 71.465 74.3786 71.1924C75.0233 70.9198 75.6061 70.5192 76.0916 70.015Z" fill="#684A97"/>
<path d="M113.259 87.5911H112.733C108.92 87.5634 105.142 88.3299 101.641 89.8417C94.835 92.763 89.4235 98.2052 86.5408 105.028C85.0384 108.517 84.2722 112.278 84.2902 116.077V118.896C81.7124 116.926 79.5306 114.486 77.8599 111.705C77.3592 110.864 76.5652 110.238 75.6308 109.947C74.9365 109.736 74.205 109.677 73.4857 109.773C72.7665 109.869 72.0763 110.118 71.4618 110.504C70.1574 111.264 69.206 112.508 68.8147 113.966C68.6673 114.525 68.6309 115.108 68.7075 115.681C68.8169 116.536 69.0898 117.362 69.5113 118.113C69.8726 118.812 70.2808 119.485 70.733 120.128C74.4304 125.122 77.5277 128.466 84.258 130.985V155.634C84.2555 156.022 84.2914 156.41 84.3652 156.792C84.3908 158.235 84.9889 159.61 86.028 160.613C87.0671 161.616 88.462 162.165 89.906 162.139C91.3499 162.114 92.7245 161.516 93.7274 160.477C94.7303 159.437 95.2794 158.043 95.2538 156.599V156.352C95.2701 156.113 95.2701 155.873 95.2538 155.634V132.989H107.043C108.516 132.983 109.928 132.395 110.969 131.353C112.011 130.312 112.599 128.9 112.605 127.427C112.618 126.7 112.479 125.978 112.197 125.308C111.914 124.638 111.495 124.034 110.965 123.536C110.451 123.023 109.838 122.618 109.165 122.346C108.491 122.073 107.769 121.939 107.043 121.95H95.3824V116.034C95.3681 113.696 95.8351 111.379 96.7542 109.229C98.5044 105.064 101.817 101.752 105.982 100.001C108.113 99.0785 110.411 98.6008 112.733 98.5975H113.259C113.987 98.6103 114.711 98.4765 115.386 98.2041C116.062 97.9316 116.676 97.526 117.192 97.0114C117.718 96.5112 118.134 95.907 118.415 95.2373C118.695 94.5677 118.834 93.847 118.821 93.1211C118.821 91.6459 118.235 90.2311 117.192 89.188C116.149 88.1449 114.734 87.5589 113.259 87.5589V87.5911Z" fill="#684A97"/>
<path d="M91.385 71.5582C92.3585 71.6825 93.3471 71.5146 94.225 71.0759L94.3858 70.9902L94.5894 70.883L94.9859 70.6151L95.061 70.5508L95.2324 70.4115L95.4039 70.2507L95.5432 70.1114L95.6611 69.9828C95.7244 69.9203 95.7818 69.8522 95.8326 69.7792L95.8969 69.7041C95.9385 69.665 95.9713 69.6175 95.9933 69.5648C96.0279 69.5302 96.0568 69.4904 96.0791 69.4469C96.1317 69.3797 96.1783 69.3079 96.2184 69.2326L96.3149 69.0718C96.3514 69.0061 96.3836 68.9381 96.4113 68.8682C96.4865 68.7231 96.551 68.5726 96.6042 68.4181C96.8282 67.7924 96.9407 67.1322 96.9364 66.4676V46.1479C96.9085 44.0277 97.2718 41.9204 98.0082 39.932C98.7032 38.074 99.7391 36.362 101.063 34.8842C102.334 33.4796 103.862 32.3302 105.564 31.4976C107.271 30.659 109.149 30.2297 111.051 30.2437C112.969 30.2372 114.863 30.6659 116.592 31.4976C118.371 32.4851 119.923 33.8362 121.146 35.4629C122.271 37.0328 123.005 38.8474 123.29 40.7572C123.743 43.1591 123.952 45.6008 123.911 48.0448V66.4461C123.899 67.6492 124.314 68.8176 125.084 69.7423C125.854 70.6671 126.927 71.2879 128.113 71.4939C128.828 71.6108 129.56 71.5669 130.256 71.3653C131.274 71.2095 132.203 70.6921 132.871 69.9078C133.751 68.9214 134.226 67.639 134.2 66.3175V46.1479C134.228 42.6826 133.603 39.2431 132.357 36.0095C131.258 32.9977 129.624 30.2093 127.534 27.7788C126.966 27.1465 126.376 26.5463 125.766 25.989C124.096 24.4744 122.219 23.2043 120.193 22.2166C117.377 20.8402 114.281 20.1324 111.147 20.1482C108.54 20.1345 105.956 20.6296 103.538 21.6057C100.968 22.8072 98.7531 24.6532 97.1079 26.9643V25.1424C97.1074 24.6977 97.0752 24.2536 97.0115 23.8134C96.9296 22.5259 96.3527 21.3201 95.4017 20.4484C94.4506 19.5768 93.1991 19.107 91.9094 19.1375C90.6196 19.168 89.3917 19.6963 88.4829 20.6119C87.574 21.5275 87.0548 22.7593 87.0338 24.0492V66.4461C87.0109 67.6823 87.4406 68.8842 88.2419 69.8256C89.0433 70.7671 90.1611 71.3833 91.385 71.5582Z" fill="#684A97"/>
<path d="M272.397 105.585C270.938 105.588 269.539 106.167 268.505 107.197C267.471 108.227 266.886 109.624 266.878 111.083V133.825H266.964C266.984 136.125 266.52 138.403 265.602 140.512C264.715 142.551 263.454 144.405 261.884 145.978C260.299 147.56 258.425 148.823 256.364 149.697C254.266 150.618 252.001 151.099 249.709 151.111C247.438 151.116 245.188 150.669 243.09 149.797C240.993 148.925 239.09 147.645 237.491 146.031C235.941 144.451 234.695 142.598 233.815 140.566C232.898 138.457 232.434 136.178 232.454 133.878V111.083C232.466 110.364 232.332 109.649 232.061 108.983C231.791 108.316 231.389 107.711 230.879 107.203C230.384 106.679 229.785 106.265 229.121 105.986C228.457 105.707 227.741 105.571 227.021 105.585C225.559 105.591 224.158 106.174 223.124 107.208C222.09 108.242 221.507 109.642 221.501 111.104V133.878C221.482 137.631 222.245 141.347 223.741 144.788C226.623 151.536 231.998 156.911 238.745 159.792C242.208 161.278 245.941 162.03 249.709 162C253.461 162.024 257.177 161.265 260.619 159.771C267.368 156.891 272.743 151.516 275.623 144.767C277.119 141.325 277.882 137.61 277.863 133.857V111.104C277.876 110.381 277.742 109.662 277.469 108.992C277.196 108.321 276.791 107.713 276.277 107.203C275.78 106.676 275.178 106.26 274.509 105.981C273.841 105.702 273.121 105.567 272.397 105.585Z" fill="#684A97"/>
<path d="M170.081 105.585C168.621 105.588 167.222 106.167 166.189 107.197C165.155 108.227 164.57 109.624 164.561 111.083V133.825H164.647C164.666 136.123 164.206 138.401 163.297 140.512C162.406 142.551 161.141 144.405 159.567 145.978C157.983 147.56 156.109 148.823 154.048 149.697C151.946 150.601 149.681 151.064 147.393 151.058C145.12 151.068 142.869 150.624 140.771 149.751C138.673 148.879 136.77 147.596 135.175 145.978C133.621 144.398 132.372 142.545 131.488 140.512C130.579 138.401 130.119 136.123 130.138 133.825V111.083C130.159 110.361 130.034 109.643 129.771 108.971C129.508 108.298 129.111 107.686 128.605 107.171C128.112 106.648 127.515 106.234 126.853 105.955C126.19 105.677 125.477 105.54 124.758 105.553C123.295 105.556 121.893 106.138 120.858 107.173C119.824 108.207 119.242 109.609 119.239 111.072V133.846C119.215 137.598 119.975 141.314 121.468 144.756C124.348 151.505 129.723 156.88 136.472 159.76C139.936 161.231 143.661 161.989 147.425 161.989C151.188 161.989 154.913 161.231 158.378 159.76C165.126 156.88 170.502 151.505 173.382 144.756C174.875 141.314 175.634 137.598 175.611 133.846V111.104C175.617 110.369 175.472 109.641 175.184 108.964C174.896 108.287 174.472 107.677 173.939 107.171C173.441 106.653 172.841 106.244 172.177 105.971C171.513 105.698 170.799 105.567 170.081 105.585Z" fill="#684A97"/>
<path d="M371.22 123.879C369.818 120.627 367.827 117.662 365.347 115.134C362.294 111.951 358.485 109.592 354.276 108.275C350.077 106.896 345.612 106.529 341.244 107.203C337.838 107.834 334.571 109.068 331.599 110.847C328.578 112.631 325.95 115.008 323.872 117.835C323.582 118.178 323.314 118.542 323.057 118.906C322.8 119.271 322.553 119.635 322.328 119.978C319.836 123.965 318.432 128.536 318.256 133.235C318.028 137.932 319.001 142.609 321.085 146.825C322.158 148.971 323.513 150.964 325.115 152.751C326.696 154.505 328.497 156.046 330.473 157.338C332.484 158.634 334.643 159.684 336.904 160.467C339.173 161.261 341.537 161.751 343.934 161.925C344.223 161.979 346.56 161.925 346.87 161.925C352.442 162.043 358.008 161.522 363.461 160.371C364.814 160.184 366.095 159.649 367.179 158.817C367.712 158.355 368.127 157.773 368.39 157.119C368.652 156.465 368.756 155.757 368.69 155.055C368.704 154.364 368.577 153.678 368.319 153.037C368.061 152.396 367.677 151.813 367.188 151.324C366.7 150.835 366.119 150.449 365.478 150.19C364.838 149.931 364.151 149.803 363.461 149.815H363.118C360.824 149.707 351.329 153.351 340.88 151.015C338.578 150.286 336.454 149.085 334.642 147.489C333.213 146.083 331.996 144.477 331.031 142.72C330.889 142.484 330.76 142.241 330.645 141.991C330.265 141.307 329.949 140.59 329.702 139.848H367.865C369.299 139.813 370.664 139.23 371.681 138.219C372.195 137.732 372.607 137.147 372.894 136.5C373.181 135.852 373.337 135.154 373.352 134.446V134.103C373.346 130.586 372.62 127.106 371.22 123.879ZM329.669 129.238C330.298 127.4 331.221 125.678 332.402 124.136C333.597 122.573 335.046 121.221 336.689 120.139C338.673 118.891 340.89 118.06 343.205 117.695C345.493 117.328 347.832 117.46 350.064 118.081C352.325 118.696 354.439 119.761 356.28 121.211C358.11 122.637 359.619 124.434 360.706 126.483C361.174 127.37 361.576 128.291 361.907 129.238H329.669Z" fill="#684A97"/>
<path d="M211.931 151.111H211.406C209.101 151.128 206.817 150.668 204.697 149.761C200.585 148.035 197.314 144.764 195.587 140.651C194.679 138.532 194.216 136.248 194.226 133.943V128.102H205.919C206.636 128.112 207.348 127.977 208.013 127.707C208.678 127.436 209.281 127.035 209.788 126.526C210.309 126.035 210.723 125.439 211.001 124.779C211.28 124.118 211.418 123.406 211.406 122.69C211.395 121.238 210.813 119.849 209.786 118.822C208.76 117.795 207.371 117.214 205.919 117.202H194.226V97.6758C194.237 97.4938 194.237 97.3113 194.226 97.1293C194.226 96.3148 194.226 95.6396 194.226 95.1895C194.259 94.4549 194.142 93.7213 193.884 93.033C193.625 92.3447 193.23 91.7159 192.722 91.1846C192.213 90.6533 191.603 90.2304 190.927 89.9415C190.25 89.6526 189.523 89.5037 188.787 89.5037C188.052 89.5037 187.324 89.6526 186.648 89.9415C185.972 90.2304 185.362 90.6533 184.853 91.1846C184.345 91.7159 183.95 92.3447 183.691 93.033C183.432 93.7213 183.316 94.4549 183.348 95.1895C183.348 95.6824 183.348 96.4434 183.348 97.3329C183.348 97.4401 183.348 97.5472 183.348 97.6437V133.964C183.331 137.707 184.087 141.414 185.567 144.853C188.397 151.601 193.744 156.983 200.474 159.857C203.929 161.347 207.655 162.102 211.417 162.075H211.942C213.395 162.069 214.788 161.489 215.816 160.462C216.843 159.434 217.423 158.041 217.429 156.588C217.444 155.871 217.307 155.158 217.028 154.497C216.749 153.836 216.335 153.241 215.811 152.751C215.308 152.23 214.706 151.816 214.039 151.534C213.372 151.252 212.655 151.108 211.931 151.111Z" fill="#684A97"/>
<path d="M314.933 108.179C314.216 107.764 313.413 107.519 312.586 107.461H311.868C308.372 107.549 304.928 108.336 301.741 109.775C299.88 110.626 298.119 111.679 296.489 112.916V110.654C296.5 109.441 296.078 108.263 295.3 107.332C294.838 106.692 294.231 106.171 293.529 105.811C292.826 105.451 292.048 105.264 291.259 105.264H290.638C289.322 105.264 288.06 105.786 287.129 106.717C286.198 107.647 285.676 108.91 285.676 110.226V156.759C285.667 157.449 285.796 158.133 286.056 158.772C286.316 159.411 286.7 159.992 287.188 160.48C287.675 160.969 288.255 161.355 288.893 161.615C289.532 161.876 290.216 162.007 290.906 162C291.603 162.013 292.295 161.885 292.942 161.623C293.588 161.362 294.175 160.972 294.667 160.478C295.174 160.002 295.575 159.426 295.845 158.785C296.114 158.144 296.246 157.454 296.232 156.759V134.789C296.213 130.49 297.866 126.351 300.84 123.247C303.818 120.173 307.852 118.346 312.126 118.135H312.544C313.965 118.135 315.328 117.57 316.333 116.565C317.338 115.56 317.902 114.197 317.902 112.776C317.911 112.108 317.784 111.445 317.528 110.827C317.272 110.21 316.892 109.651 316.412 109.186C315.975 108.775 315.476 108.435 314.933 108.179Z" fill="#684A97"/>
<path d="M188.879 61.0876C190.136 59.3237 191.172 57.4126 191.965 55.3968C192.771 53.3634 193.311 51.2346 193.573 49.063C193.573 48.6343 193.669 48.227 193.701 47.8198C193.733 47.4125 193.701 47.0053 193.701 46.5873V8.00569C193.701 6.66978 193.171 5.38859 192.226 4.44396C191.281 3.49933 190 2.96864 188.664 2.96864C187.328 2.96864 186.047 3.49933 185.103 4.44396C184.158 5.38859 183.627 6.66978 183.627 8.00569V25.839C178.23 21.6533 171.392 19.7801 164.615 20.6305C161.26 21.0532 158.02 22.1272 155.077 23.792C152.114 25.4512 149.524 27.702 147.468 30.4045C145.826 32.5616 144.524 34.958 143.609 37.5099C142.707 40.0657 142.194 42.7428 142.088 45.4513C141.97 49.78 142.951 54.0679 144.938 57.9153C146.942 61.8487 149.928 65.1981 153.606 67.6389C157.284 70.0798 161.53 71.5295 165.933 71.8476C172.654 72.3812 179.313 70.231 184.452 65.8674C186.129 64.4727 187.617 62.866 188.879 61.0876ZM172.932 61.2912C172.487 61.4892 172.033 61.6644 171.57 61.8163C172.063 61.6342 172.567 61.4412 173.071 61.2269C173.029 61.2622 172.982 61.2911 172.932 61.3126V61.2912ZM183.477 49.1058C183.006 51.5666 181.965 53.883 180.44 55.8703C178.914 57.8576 176.945 59.4607 174.689 60.5517C174.153 60.7875 173.617 61.0233 173.103 61.2376C173.478 61.0769 173.842 60.9054 174.175 60.7125C172.533 61.4581 170.767 61.8941 168.966 61.9985C167.187 62.1093 165.402 61.9467 163.672 61.5163C161.902 61.0318 160.235 60.2292 158.753 59.1478C157.237 58.0642 155.923 56.7219 154.873 55.1825C153.824 53.7387 153.067 52.1042 152.644 50.3705C152.193 48.6586 152.016 46.8863 152.119 45.1191C152.214 43.1305 152.706 41.1811 153.566 39.3854C154.403 37.6159 155.538 36.0028 156.92 34.6163C157.597 33.982 158.337 33.4182 159.128 32.9337C159.9 32.4514 160.714 31.9906 161.571 31.5619C163.541 30.658 165.684 30.1936 167.852 30.2008C170.046 30.2016 172.215 30.6654 174.218 31.5619C176.198 32.4255 177.984 33.6793 179.469 35.2486C180.978 36.8346 182.138 38.7182 182.877 40.7786C183.841 43.4534 184.048 46.3421 183.477 49.1273V49.1058Z" fill="#684A97"/>
<path d="M205.233 51.4422C206.855 53.0871 208.771 54.4139 210.881 55.3539C213.072 56.3198 215.442 56.8128 217.836 56.8007H224.052C224.238 56.8169 224.424 56.8169 224.609 56.8007H240.064C240.758 56.8716 241.438 57.0487 242.078 57.3259C243.406 57.9251 244.53 58.8978 245.314 60.1253C246.099 61.3527 246.508 62.7819 246.494 64.2384C246.499 65.2346 246.306 66.222 245.926 67.1428C245.565 68.0218 245.038 68.8226 244.372 69.5005C243.702 70.1697 242.914 70.7076 242.046 71.0867C241.185 71.4753 240.248 71.6693 239.303 71.6547H208.887C207.466 71.6547 206.103 72.2192 205.098 73.2241C204.093 74.2291 203.529 75.592 203.529 77.0132C203.523 77.7202 203.658 78.4214 203.925 79.0762C204.191 79.731 204.585 80.3265 205.083 80.8285C205.567 81.3591 206.156 81.7835 206.813 82.075C207.47 82.3664 208.18 82.5186 208.898 82.5218H239.346C241.745 82.5319 244.12 82.0314 246.312 81.0536C248.422 80.1249 250.336 78.8007 251.949 77.1525C253.564 75.4892 254.857 73.5417 255.764 71.4082C256.698 69.1614 257.179 66.7521 257.179 64.3188C257.179 61.8855 256.698 59.4762 255.764 57.2294C254.865 55.0792 253.571 53.1163 251.949 51.4422C250.331 49.7975 248.419 48.4707 246.312 47.5304C244.117 46.5627 241.744 46.0662 239.346 46.0729H223.463C223.274 46.0622 223.084 46.0622 222.895 46.0729H217.14C216.445 46.0048 215.765 45.8276 215.125 45.5478C214.264 45.1643 213.485 44.6185 212.831 43.9402C212.159 43.2552 211.624 42.4475 211.256 41.561C210.875 40.6555 210.682 39.682 210.688 38.6995C210.678 37.7241 210.863 36.7565 211.231 35.853C211.599 34.9496 212.143 34.1285 212.831 33.4374C213.499 32.7688 214.284 32.2276 215.146 31.8406C216.011 31.463 216.946 31.2731 217.89 31.2833H231.886C233.308 31.2833 234.671 30.7187 235.675 29.7138C236.68 28.7089 237.245 27.3459 237.245 25.9247C237.25 25.2177 237.116 24.5166 236.849 23.8618C236.583 23.207 236.189 22.6114 235.691 22.1094C235.201 21.5943 234.61 21.1849 233.956 20.9066C233.302 20.6283 232.597 20.4869 231.886 20.4911H217.836C215.441 20.4828 213.071 20.9794 210.881 21.9487C208.768 22.8849 206.852 24.2121 205.233 25.8604C203.646 27.5126 202.375 29.4413 201.482 31.5512C200.548 33.7962 200.067 36.2037 200.067 38.6352C200.067 41.0667 200.548 43.4742 201.482 45.7192C202.367 47.8427 203.639 49.7833 205.233 51.4422Z" fill="#684A97"/>
<path d="M55.5683 69.4791V42.6112V29.9972V5.35852C55.5816 4.65775 55.4516 3.96165 55.1862 3.31294C54.9208 2.66423 54.5257 2.0766 54.025 1.5861C53.5328 1.06995 52.9383 0.662256 52.2794 0.389127C51.6206 0.115998 50.912 -0.0165525 50.199 -3.7556e-05C49.1107 -0.0120683 48.0461 0.317806 47.1553 0.943069L31.2833 16.8473C30.3589 17.7216 29.1368 18.212 27.8645 18.2191C26.5574 18.2274 25.2964 17.7368 24.3386 16.8473L9.02379 1.45749L8.3379 0.857332V0.943069C7.46503 0.330529 6.42489 0.00127506 5.35854 -3.7556e-05C4.64975 -0.0185368 3.94482 0.109992 3.28817 0.377447C2.63152 0.644902 2.0374 1.04548 1.54324 1.55394C1.03858 2.04817 0.641112 2.64104 0.375601 3.2956C0.110089 3.95016 -0.0177747 4.65239 -2.31051e-05 5.35852V65.7816C-0.0151641 66.4836 0.115075 67.1811 0.382506 67.8303C0.649938 68.4796 1.04878 69.0664 1.55396 69.5541C2.04957 70.0576 2.64244 70.455 3.2965 70.7222C3.95056 70.9893 4.65213 71.1206 5.35854 71.1081C6.06869 71.1248 6.77472 70.9955 7.43286 70.7282C8.09099 70.4609 8.68721 70.0613 9.18455 69.5541C9.68586 69.0646 10.0807 68.4769 10.3444 67.8278C10.6081 67.1786 10.735 66.4821 10.7171 65.7816V18.0476L17.6725 25.0137C18.98 26.3855 23.0311 30.9296 27.6823 30.9296C32.3335 30.9296 36.7061 26.3855 38.0779 25.0137L45.0119 18.1333V28.9362C45.0119 28.9362 45.0119 32.1513 45.0119 36.5239V69.4791C45.0244 75.1445 46.8246 80.6615 50.1561 85.2439C50.5685 85.8018 51.0874 86.2725 51.6827 86.6287C52.2781 86.9849 52.9381 87.2196 53.6247 87.3193C54.3113 87.4189 55.0108 87.3815 55.6829 87.2093C56.3549 87.037 56.9862 86.7333 57.5402 86.3157C58.1032 85.8934 58.5774 85.3645 58.936 84.759C59.2945 84.1534 59.5303 83.4832 59.6298 82.7866C59.7293 82.09 59.6906 81.3806 59.516 80.6989C59.3413 80.0172 59.0341 79.3766 58.6119 78.8137C56.6487 76.0957 55.5845 72.8319 55.5683 69.4791Z" fill="#684A97"/>
</g>
<defs>
<clipPath id="clip0_7_3">
<rect width="373.32" height="162" fill="white"/>
</clipPath>
</defs>
</svg>
