<svg xmlns="http://www.w3.org/2000/svg" viewBox="0 0 248.41 242.92"><defs><style>.cls-1{fill:#e8473a;}.cls-2{fill:#684a97;}.cls-3{fill:#ffd300;}</style></defs><title>Colorida-6</title><g id="Camada_2" data-name="Camada 2"><g id="Vetores"><g id="Colorida-6"><path class="cls-1" d="M234.76,148.47a9.09,9.09,0,1,0,9.09,9.09A9.09,9.09,0,0,0,234.76,148.47Z"/><path class="cls-1" d="M37.62,43.08A9.09,9.09,0,1,0,28.53,34,9.09,9.09,0,0,0,37.62,43.08Z"/><path class="cls-1" d="M23.16,183.58a9.09,9.09,0,1,0,9.08,9.1A9.09,9.09,0,0,0,23.16,183.58Z"/><path class="cls-2" d="M168.44,193.83a8.9,8.9,0,0,1-12.53-1.9,45.59,45.59,0,0,1-8.72-26.75V109.29h0c0-7.48,0-12.88,0-12.88l0-1.38V78.09L135.47,89.75c-2.33,2.33-9.81,10-17.62,10s-14.77-7.71-17-10L89.07,77.94v81a9,9,0,0,1-9.11,9,8.82,8.82,0,0,1-6.47-2.62,8.68,8.68,0,0,1-2.65-6.42V56.36A9,9,0,0,1,85,48.93v-.15l1.17,1L112.1,75.9a8.74,8.74,0,0,0,6,2.33,8.56,8.56,0,0,0,5.83-2.33l26.82-27h.16a9,9,0,0,1,11.51,1A8.68,8.68,0,0,1,165,56.36V95l0,3.18h0l.07,21.41v45.57a27.26,27.26,0,0,0,5.21,16,9.11,9.11,0,0,1-1.88,12.66"/><path class="cls-3" d="M240.58,145.22A121.44,121.44,0,0,0,47.8,24.91,13.64,13.64,0,1,0,28.11,43.77,121.39,121.39,0,0,0,15.74,181.23a13.64,13.64,0,1,0,16,22.07A121.45,121.45,0,0,0,232.36,171a13.64,13.64,0,0,0,8.22-25.77ZM37.62,24.9a9.67,9.67,0,0,1,1.88.19l.26.08a9.28,9.28,0,0,1,1.49.49.26.26,0,0,1,.09.05,9.07,9.07,0,0,1,5.11,6.19h0c0,.2.08.41.12.62A8.83,8.83,0,0,1,46.71,34a9.09,9.09,0,0,1-9.09,9.09,7.33,7.33,0,0,1-1.41-.15,7.29,7.29,0,0,1-1-.23h0a9,9,0,0,1-4.06-2.39h0l0,0a8.92,8.92,0,0,1-1.86-2.83,2.29,2.29,0,0,1-.12-.37,9.63,9.63,0,0,1-.4-1.29A9.83,9.83,0,0,1,28.53,34,9.08,9.08,0,0,1,37.62,24.9ZM28.7,199.83h0a8.92,8.92,0,0,1-1.11.74l-.25.13a7.63,7.63,0,0,1-1.05.47c-.21.09-.43.14-.65.21a7.79,7.79,0,0,1-.83.22,8.88,8.88,0,0,1-1.65.16,9.08,9.08,0,0,1-9.1-9.08,8.85,8.85,0,0,1,.17-1.64l.06-.35a9.62,9.62,0,0,1,.46-1.47l.12-.26a10.53,10.53,0,0,1,.65-1.19l.15-.25a10.16,10.16,0,0,1,.94-1.14l.28-.27a8.15,8.15,0,0,1,1.16-1h0a9,9,0,0,1,4.5-1.52h0c.21,0,.4-.06.61-.06a9.09,9.09,0,0,1,9.08,9.1,9.29,9.29,0,0,1-.17,1.76A9,9,0,0,1,28.7,199.83Zm92.76,38.52A116.6,116.6,0,0,1,34.79,199.8,13.62,13.62,0,0,0,20,179.4a116.56,116.56,0,0,1,12-133,13.47,13.47,0,0,0,5.67,1.25,13.65,13.65,0,0,0,12.65-18.8A116.82,116.82,0,0,1,236.16,144c-.46,0-.93-.07-1.4-.07A13.64,13.64,0,0,0,228,169.42,117,117,0,0,1,121.46,238.35Zm113.3-71.7a9,9,0,0,1-5.44-1.84,7.35,7.35,0,0,1-.67-.56,4.68,4.68,0,0,1-.46-.43,9.19,9.19,0,0,1-.85-1c-.1-.14-.18-.29-.27-.43a10.5,10.5,0,0,1-.57-1c-.05-.11-.11-.21-.15-.31a10.16,10.16,0,0,1-.45-1.45c0-.13-.05-.26-.07-.38a8.75,8.75,0,0,1-.17-1.63,9.09,9.09,0,0,1,9.1-9.09c.13,0,.26,0,.4,0h0a9,9,0,0,1,5.12,1.87l.43.36a9.57,9.57,0,0,1,.79.77c.21.24.42.48.61.74a6.49,6.49,0,0,1,.36.55,7.72,7.72,0,0,1,.51.94c.05.12.12.23.18.36a8.77,8.77,0,0,1,.44,1.43c0,.14.06.27.08.41a8.73,8.73,0,0,1,.17,1.62A9.1,9.1,0,0,1,234.76,166.65Z"/></g></g></g></svg>